<svg xmlns="http://www.w3.org/2000/svg" style="display:none" aria-hidden="true">
  <symbol id="ico-dashboard" viewBox="0 0 24 24" fill="none" stroke="currentColor" stroke-width="1.75" stroke-linecap="round" stroke-linejoin="round">
    <rect x="3" y="3" width="7" height="9" rx="1.5"/>
    <rect x="14" y="3" width="7" height="5" rx="1.5"/>
    <rect x="14" y="12" width="7" height="9" rx="1.5"/>
    <rect x="3" y="16" width="7" height="5" rx="1.5"/>
  </symbol>
  <symbol id="ico-settings" viewBox="0 0 24 24" fill="none" stroke="currentColor" stroke-width="1.75" stroke-linecap="round" stroke-linejoin="round">
    <circle cx="12" cy="12" r="3"/>
    <path d="M12 2v2M12 20v2M4.93 4.93l1.41 1.41M17.66 17.66l1.41 1.41M2 12h2M20 12h2M4.93 19.07l1.41-1.41M17.66 6.34l1.41-1.41"/>
  </symbol>
  <symbol id="ico-menu" viewBox="0 0 24 24" fill="none" stroke="currentColor" stroke-width="1.75" stroke-linecap="round">
    <path d="M4 7h16M4 12h16M4 17h16"/>
  </symbol>
  <symbol id="ico-upload" viewBox="0 0 24 24" fill="none" stroke="currentColor" stroke-width="1.75" stroke-linecap="round" stroke-linejoin="round">
    <path d="M12 16V4M12 4l4 4M12 4L8 8"/>
    <path d="M4 18v2a1 1 0 0 0 1 1h14a1 1 0 0 0 1-1v-2"/>
  </symbol>
  <symbol id="ico-play" viewBox="0 0 24 24" fill="currentColor" stroke="none">
    <path d="M8 5.5v13l11-6.5L8 5.5z"/>
  </symbol>
  <symbol id="ico-pause" viewBox="0 0 24 24" fill="currentColor" stroke="none">
    <rect x="6" y="5" width="4" height="14" rx="1"/>
    <rect x="14" y="5" width="4" height="14" rx="1"/>
  </symbol>
  <symbol id="ico-resume" viewBox="0 0 24 24" fill="none" stroke="currentColor" stroke-width="1.75" stroke-linecap="round" stroke-linejoin="round">
    <path d="M8 5.5v13l9-6.5-9-6.5z" fill="currentColor" stroke="none"/>
    <path d="M18 5v14"/>
  </symbol>
  <symbol id="ico-stop" viewBox="0 0 24 24" fill="currentColor" stroke="none">
    <rect x="6" y="6" width="12" height="12" rx="1.5"/>
  </symbol>
  <symbol id="ico-search" viewBox="0 0 24 24" fill="none" stroke="currentColor" stroke-width="1.75" stroke-linecap="round" stroke-linejoin="round">
    <circle cx="11" cy="11" r="6"/>
    <path d="M20 20l-4-4"/>
  </symbol>
  <symbol id="ico-save" viewBox="0 0 24 24" fill="none" stroke="currentColor" stroke-width="1.75" stroke-linecap="round" stroke-linejoin="round">
    <path d="M5 5h12l2 2v12a1 1 0 0 1-1 1H5a1 1 0 0 1-1-1V6a1 1 0 0 1 1-1z"/>
    <path d="M8 5V3h8v4"/>
    <rect x="8" y="13" width="8" height="6" rx="1"/>
  </symbol>
  <symbol id="ico-check" viewBox="0 0 24 24" fill="none" stroke="currentColor" stroke-width="2" stroke-linecap="round" stroke-linejoin="round">
    <path d="M5 12l4 4L19 6"/>
  </symbol>
</svg>
